HIERARCHY
ROOT Hips
{
	OFFSET 0.000000 0.000000 0.000000 
	CHANNELS 6 Xposition Yposition Zposition Zrotation Yrotation Xrotation
	JOINT LeftUpLeg
	{
		OFFSET 1.363060 -1.794630 0.839290 
		CHANNELS 3 Zrotation Yrotation Xrotation
		JOINT LeftLeg
		{
			OFFSET 2.448110 -6.726130 0.000000 
			CHANNELS 3 Zrotation Yrotation Xrotation
			JOINT LeftFoot
			{
				OFFSET 2.562200 -7.039590 0.000000 
				CHANNELS 3 Zrotation Yrotation Xrotation
				JOINT LeftToeBase
				{
					OFFSET 0.157640 -0.433110 2.322550 
					CHANNELS 3 Zrotation Yrotation Xrotation
					End Site
					{
						OFFSET 0.000000 0.000000 0.000000 
					}
				}
			}
		}
	}
	JOINT RightUpLeg
	{
		OFFSET -1.305520 -1.794630 0.839290 
		CHANNELS 3 Zrotation Yrotation Xrotation
		JOINT RightLeg
		{
			OFFSET -2.542530 -6.985550 0.000000 
			CHANNELS 3 Zrotation Yrotation Xrotation
			JOINT RightFoot
			{
				OFFSET -2.568260 -7.056230 0.000000 
				CHANNELS 3 Zrotation Yrotation Xrotation
				JOINT RightToeBase
				{
					OFFSET -0.164730 -0.452590 2.363150 
					CHANNELS 3 Zrotation Yrotation Xrotation
					End Site
					{
						OFFSET 0.000000 0.000000 0.000000 
					}
				}
			}
		}
	}
	JOINT Spine
	{
		OFFSET 0.028270 2.035590 -0.193380 
		CHANNELS 3 Zrotation Yrotation Xrotation
		JOINT Spine1
		{
			OFFSET 0.056720 2.048850 -0.042750 
			CHANNELS 3 Zrotation Yrotation Xrotation
			JOINT Neck1
			{
				OFFSET -0.054170 1.746240 0.172020 
				CHANNELS 3 Zrotation Yrotation Xrotation
				JOINT Head
				{
					OFFSET 0.104070 1.761360 -0.123970 
					CHANNELS 3 Zrotation Yrotation Xrotation
					End Site
					{
						OFFSET 0.000000 0.000000 0.000000 
					}
				}
			}
			JOINT LeftArm
			{
				OFFSET 3.362410 1.200890 -0.311210 
				CHANNELS 3 Zrotation Yrotation Xrotation
				JOINT LeftForeArm
				{
					OFFSET 4.983000 -0.000000 -0.000000 
					CHANNELS 3 Zrotation Yrotation Xrotation
					JOINT LeftHand
					{
						OFFSET 3.483560 -0.000000 -0.000000 
						CHANNELS 3 Zrotation Yrotation Xrotation
						JOINT LeftHandIndex1
						{
							OFFSET 0.715260 -0.000000 -0.000000 
							CHANNELS 3 Zrotation Yrotation Xrotation
							End Site
							{
								OFFSET 0.000000 0.000000 0.000000 
							}
						}
					}
				}
			}
			JOINT RightArm
			{
				OFFSET -3.136600 1.374050 -0.404650 
				CHANNELS 3 Zrotation Yrotation Xrotation
				JOINT RightForeArm
				{
					OFFSET -5.241900 -0.000000 -0.000000 
					CHANNELS 3 Zrotation Yrotation Xrotation
					JOINT RightHand
					{
						OFFSET -3.444170 -0.000000 -0.000000 
						CHANNELS 3 Zrotation Yrotation Xrotation
						JOINT RightHandIndex1
						{
							OFFSET -0.622530 -0.000000 -0.000000 
							CHANNELS 3 Zrotation Yrotation Xrotation
							End Site
							{
								OFFSET 0.000000 0.000000 0.000000 
							}
						}
					}
				}
			}
		}
	}
}
MOTION
Frames: 10
Frame Time: 0.041667
14.881352 16.236878 -1.340395 2.589556 -46.032898 -19.089705 -30.372735 9.626386 -2.381013 3.640849 15.547132 43.056250 1.874231 -5.219883 -17.958731 0.802000 5.715600 15.961500 2.401067 -8.196354 -23.084916 -7.578411 -16.911047 52.597064 1.016798 -19.410098 -27.719268 -3.705100 -11.757200 34.878500 -0.651264 -0.082838 -1.407660 -3.655609 0.144535 -2.232016 -4.522098 11.073547 0.216936 -4.966700 3.965400 8.399800 -46.395293 1.919775 -0.104897 59.860712 -54.372729 -38.480508 -1.026543 -0.754163 -35.437015 -7.125000 0.000000 0.000000 74.986634 -26.543709 -49.439992 -21.112853 30.507932 -6.497412 1.056739 -1.718430 -41.593228 7.125000 0.000000 0.000000 
15.031931 16.290663 -1.412835 2.603032 -45.119808 -18.732685 -30.935528 8.863321 -2.637029 3.336821 15.339649 42.072894 1.694723 -4.723981 -16.979165 0.707200 5.374900 14.980900 3.508326 -8.285872 -24.504518 -7.933623 -17.204230 53.873177 1.005540 -19.154026 -27.579454 -3.681300 -11.723700 34.761500 -0.691674 -0.000898 -1.363962 -3.428379 0.185209 -2.237633 -5.113185 11.485629 0.050440 -5.360500 4.132100 8.238600 -46.035582 0.126242 1.216328 59.637853 -54.306633 -38.227165 -1.031450 -0.677839 -34.013739 -7.125000 0.000000 0.000000 73.756639 -26.448440 -47.502229 -21.968368 31.554704 -6.913082 1.063734 -1.642459 -43.167997 7.125000 0.000000 0.000000 
15.171007 16.367456 -1.489524 1.967379 -44.355648 -17.900594 -30.834831 8.112725 -2.742822 3.024476 15.052105 40.942481 1.542412 -4.567372 -15.673708 0.770700 5.605800 15.644800 5.410809 -8.207553 -25.749967 -8.219631 -17.503743 54.898597 0.943662 -18.708485 -27.586102 -3.817800 -11.914000 35.428400 -0.688594 0.112742 -1.343693 -3.136982 0.227942 -2.131443 -5.089927 11.799065 0.362093 -5.300300 4.284400 8.396600 -45.953802 -1.701438 2.478555 59.549260 -54.266089 -38.063424 -1.033023 -0.603357 -32.418139 -7.125000 0.000000 0.000000 72.652980 -26.481393 -45.196125 -23.111213 32.890515 -7.490601 1.080389 -1.553388 -44.698165 7.125000 0.000000 0.000000 
15.304487 16.466011 -1.566109 0.902032 -43.604783 -16.694119 -30.323260 7.246605 -2.723605 2.690869 14.689751 39.642099 1.429909 -4.754093 -14.138490 1.042200 6.492700 18.220700 7.791472 -8.113365 -27.038599 -8.475069 -17.810998 55.824198 1.009529 -18.706940 -27.264053 -3.388700 -11.299100 33.295500 -0.676944 0.179673 -1.353137 -3.015003 0.259774 -2.141840 -5.153912 12.169406 0.612433 -5.295200 4.460000 8.537500 -45.836453 -3.155105 4.017862 59.947701 -54.369865 -38.328111 -1.031857 -0.553461 -31.119948 -7.125000 0.000000 0.000000 71.152352 -25.916788 -44.127159 -23.460876 33.284280 -7.660808 1.051700 -1.494648 -44.275402 7.125000 0.000000 0.000000 
15.439625 16.583117 -1.638860 0.079323 -42.586738 -15.651910 -30.110925 6.359252 -2.616098 2.275149 14.240006 38.027920 1.254723 -4.440365 -12.530523 1.069500 6.574300 18.460100 9.862854 -8.180968 -28.251633 -8.730513 -18.082331 56.738686 1.176512 -18.796928 -26.105530 -2.887500 -10.510600 30.646700 -0.713418 0.122627 -1.389866 -3.054756 0.249656 -2.221578 -5.071675 12.459926 0.912005 -5.197200 4.612900 8.697900 -45.638391 -4.586750 5.681844 60.412789 -54.484097 -38.632492 -1.031183 -0.510795 -30.432949 -7.125000 0.000000 0.000000 70.214848 -25.613277 -42.971663 -24.239794 34.134519 -8.079686 1.025138 -1.454041 -43.866232 7.125000 0.000000 0.000000 
15.573727 16.716908 -1.709849 -0.762764 -41.392812 -14.637894 -29.999630 5.289169 -2.278125 1.794592 13.694329 36.121573 1.030492 -3.636246 -10.922025 0.914600 6.093800 17.056700 11.918093 -8.334423 -29.199280 -8.897301 -18.293073 57.338987 1.191108 -18.464509 -25.524328 -2.556400 -9.939800 28.782000 -0.760000 -0.020599 -1.416745 -3.124186 0.192601 -2.184437 -4.722542 12.722538 1.326470 -4.895900 4.760900 8.943000 -45.637117 -6.173190 7.363118 60.800333 -54.574498 -38.843875 -1.037793 -0.462598 -29.825792 -7.125000 0.000000 0.000000 69.669115 -25.525021 -41.479166 -25.379842 35.347725 -8.712567 1.013869 -1.408032 -43.612154 7.125000 0.000000 0.000000 
15.706585 16.864793 -1.781563 -1.920009 -40.080661 -13.486783 -29.629095 3.928038 -1.548901 1.293234 13.046546 33.993830 0.835254 -2.966575 -9.177881 0.971900 6.276400 17.588500 14.317575 -8.517796 -29.772794 -8.906790 -18.436049 57.416079 1.164946 -17.952834 -24.945894 -2.257800 -9.383600 27.002700 -0.749317 -0.258264 -1.420883 -2.980294 0.057395 -1.976128 -4.054290 13.189591 1.990682 -4.301500 4.995400 9.416900 -46.009474 -7.718558 9.012405 61.348420 -54.708772 -39.194427 -1.048860 -0.423145 -29.216750 -7.125000 0.000000 0.000000 68.825544 -25.267683 -39.627816 -26.504900 36.508426 -9.354606 1.000071 -1.358103 -43.383241 7.125000 0.000000 0.000000 
15.838200 17.025632 -1.852863 -3.193909 -38.643818 -12.314444 -29.028988 2.625524 -0.549864 0.761318 12.248987 31.515997 0.676140 -2.503003 -7.159176 1.154600 6.822100 19.189500 16.900574 -8.759743 -30.092861 -8.811910 -18.537192 57.161487 1.187435 -17.579293 -24.084557 -1.735900 -8.292900 23.607300 -0.687523 -0.449590 -1.370944 -2.928634 -0.039601 -2.060970 -5.012183 13.501637 1.367680 -4.943400 5.092400 9.021000 -46.601414 -9.379610 10.575324 61.850313 -54.861718 -39.536616 -1.057748 -0.397975 -28.932169 -7.125000 0.000000 0.000000 67.848126 -25.007905 -37.891079 -27.529265 37.557341 -9.955532 0.972547 -1.317044 -42.886575 7.125000 0.000000 0.000000 
15.967741 17.197042 -1.923437 -4.720969 -37.141326 -11.055241 -28.071987 1.557917 0.529473 0.232289 11.318989 28.776007 0.532275 -1.984267 -4.941357 1.264100 7.126800 20.091700 19.742759 -9.002412 -30.307919 -8.649908 -18.614426 56.702255 1.176474 -17.070531 -23.278496 -1.266200 -7.132500 20.108600 -0.635770 -0.628088 -1.334135 -3.007500 -0.130133 -2.076873 -5.383840 13.678271 1.176986 -5.180200 5.152900 8.932500 -47.240706 -11.108920 12.275076 62.463933 -55.026209 -39.949428 -1.065123 -0.373773 -28.640747 -7.125000 0.000000 0.000000 66.859371 -24.543642 -36.778506 -28.248471 38.260932 -10.387758 0.947307 -1.281787 -41.659088 7.125000 0.000000 0.000000 
16.102258 17.376535 -1.995981 -6.150639 -35.455484 -9.923207 -27.095237 0.831022 1.572463 -0.276957 10.285197 25.824157 0.398271 -1.311090 -2.547643 1.308400 7.245800 20.445700 22.463176 -9.296651 -30.427546 -8.429542 -18.636364 56.044525 1.233322 -16.568211 -21.513978 -0.888700 -6.009100 16.810900 -0.589995 -0.919786 -1.316908 -3.069510 -0.276782 -2.127592 -5.443261 13.867585 1.221192 -5.205600 5.237500 9.012700 -47.896316 -12.614547 14.248507 63.177713 -55.211110 -40.444151 -1.066967 -0.342418 -28.227657 -7.125000 0.000000 0.000000 65.685228 -23.928658 -35.810760 -28.690492 38.680346 -10.654721 0.916608 -1.251543 -40.076513 7.125000 0.000000 0.000000 
